<svg xmlns="http://www.w3.org/2000/svg" version="1.0" preserveAspectRatio="xMidYMid meet" viewBox="203 195 374 394">
<metadata>
Created by potrace 1.16, written by Peter Selinger 2001-2019
</metadata>
<g transform="translate(0.000000,864.000000) scale(0.100000,-0.100000)" fill="#000000" stroke="none">
<path d="M4190 6624 c-38 -37 -70 -70 -70 -73 0 -4 75 -88 166 -187 l167 -179 -559 -6 c-531 -5 -564 -7 -659 -28 -276 -62 -474 -162 -645 -327 -140 -135 -221 -265 -285 -457 -58 -177 -67 -255 -72 -619 l-5 -328 106 0 106 0 0 283 c0 371 15 486 87 667 105 262 341 468 633 553 149 43 210 47 763 47 l530 0 -58 -62 c-33 -35 -108 -113 -167 -175 -59 -61 -108 -116 -108 -121 0 -6 32 -40 72 -77 l72 -66 37 38 c20 21 150 157 288 302 l251 264 -43 46 c-322 349 -529 571 -533 571 -2 0 -35 -30 -74 -66z"/>
<path d="M3357 5143 c-4 -3 -7 -543 -7 -1200 l0 -1193 1210 0 1210 0 0 1200 0 1200 -1203 0 c-662 0 -1207 -3 -1210 -7z m2203 -1198 l0 -995 -1000 0 -1000 0 0 995 0 995 1000 0 1000 0 0 -995z"/>
<path d="M3128 4109 c-49 -18 -60 -64 -56 -219 3 -130 4 -140 27 -164 34 -36 101 -37 136 -1 24 23 25 28 25 179 0 147 -1 156 -22 180 -27 29 -72 39 -110 25z m72 -49 c18 -18 20 -33 20 -144 0 -148 -8 -176 -48 -176 -48 0 -52 12 -52 166 0 136 1 144 22 158 29 20 34 20 58 -4z"/>
<path d="M2166 3906 c-52 -20 -92 -60 -113 -115 -14 -36 -18 -76 -18 -191 0 -136 2 -149 25 -194 31 -61 75 -86 148 -86 60 0 101 17 132 57 l22 28 -4 -142 c-3 -161 -15 -190 -80 -207 -76 -19 -133 21 -144 103 l-7 51 -48 0 -49 0 6 -42 c10 -76 15 -92 40 -131 34 -52 91 -76 175 -77 97 0 145 27 184 105 l30 60 0 315 0 315 -25 50 c-35 70 -87 104 -170 110 -43 4 -78 1 -104 -9z m159 -110 c31 -31 37 -70 33 -211 l-3 -117 -33 -29 c-37 -33 -85 -38 -131 -15 -42 22 -51 54 -51 192 0 172 17 203 113 204 37 0 53 -5 72 -24z"/>
<path d="M2710 3911 c-58 -19 -91 -44 -117 -89 l-28 -47 -3 -312 c-2 -198 1 -325 7 -351 27 -100 96 -152 204 -152 105 0 173 44 202 131 14 40 16 97 13 366 l-3 318 -25 45 c-32 57 -91 91 -168 96 -31 2 -68 0 -82 -5z m134 -110 c42 -36 46 -67 46 -358 0 -164 -4 -294 -11 -316 -28 -101 -180 -101 -208 0 -7 22 -11 152 -11 316 0 291 4 322 46 358 36 32 102 32 138 0z"/>
</g>
</svg>