<?xml version="1.0" encoding="UTF-8"?>
<svg xmlns="http://www.w3.org/2000/svg" xmlns:xlink="http://www.w3.org/1999/xlink" width="30px" height="30px" viewBox="0 0 30 30" version="1.1">
<g id="surface1">
<path style=" stroke:none;fill-rule:nonzero;fill:rgb(0%,0%,0%);fill-opacity:1;" d="M 17.328125 0.503906 C 17.019531 0.785156 16.765625 1.035156 16.765625 1.058594 C 16.765625 1.089844 17.367188 1.726562 18.097656 2.480469 L 19.4375 3.84375 L 14.953125 3.890625 C 10.691406 3.929688 10.429688 3.945312 9.664062 4.105469 C 7.453125 4.574219 5.863281 5.335938 4.492188 6.59375 C 3.367188 7.621094 2.71875 8.613281 2.207031 10.074219 C 1.742188 11.421875 1.667969 12.015625 1.628906 14.785156 L 1.589844 17.285156 L 3.289062 17.285156 L 3.289062 15.128906 C 3.289062 12.304688 3.410156 11.429688 3.988281 10.050781 C 4.828125 8.054688 6.722656 6.488281 9.0625 5.839844 C 10.257812 5.511719 10.75 5.480469 15.183594 5.480469 L 19.4375 5.480469 L 18.96875 5.953125 C 18.707031 6.222656 18.105469 6.816406 17.632812 7.285156 C 17.15625 7.75 16.765625 8.171875 16.765625 8.207031 C 16.765625 8.253906 17.019531 8.511719 17.34375 8.792969 L 17.917969 9.296875 L 18.214844 9.007812 C 18.378906 8.847656 19.417969 7.8125 20.527344 6.707031 L 22.539062 4.699219 L 22.195312 4.347656 C 19.613281 1.691406 17.953125 0 17.917969 0 C 17.902344 0 17.640625 0.226562 17.328125 0.503906 Z M 17.328125 0.503906 "/>
<path style=" stroke:none;fill-rule:nonzero;fill:rgb(0%,0%,0%);fill-opacity:1;" d="M 10.644531 11.777344 C 10.613281 11.800781 10.589844 15.914062 10.589844 20.917969 L 10.589844 30 L 30 30 L 30 11.726562 L 20.351562 11.726562 C 15.039062 11.726562 10.667969 11.75 10.644531 11.777344 Z M 28.316406 20.902344 L 28.316406 28.476562 L 12.273438 28.476562 L 12.273438 13.324219 L 28.316406 13.324219 Z M 28.316406 20.902344 "/>
<path style=" stroke:none;fill-rule:nonzero;fill:rgb(0%,0%,0%);fill-opacity:1;" d="M 8.808594 19.652344 C 8.414062 19.789062 8.328125 20.140625 8.359375 21.320312 C 8.382812 22.308594 8.390625 22.386719 8.574219 22.570312 C 8.847656 22.84375 9.386719 22.851562 9.664062 22.574219 C 9.859375 22.402344 9.867188 22.363281 9.867188 21.214844 C 9.867188 20.09375 9.859375 20.023438 9.691406 19.84375 C 9.472656 19.621094 9.113281 19.546875 8.808594 19.652344 Z M 9.386719 20.023438 C 9.53125 20.164062 9.546875 20.277344 9.546875 21.121094 C 9.546875 22.25 9.480469 22.460938 9.160156 22.460938 C 8.777344 22.460938 8.742188 22.371094 8.742188 21.199219 C 8.742188 20.164062 8.75 20.101562 8.917969 19.996094 C 9.152344 19.84375 9.191406 19.84375 9.386719 20.023438 Z M 9.386719 20.023438 "/>
<path style=" stroke:none;fill-rule:nonzero;fill:rgb(0%,0%,0%);fill-opacity:1;" d="M 1.089844 21.199219 C 0.671875 21.351562 0.351562 21.65625 0.183594 22.074219 C 0.0703125 22.347656 0.0390625 22.652344 0.0390625 23.527344 C 0.0390625 24.5625 0.0546875 24.664062 0.242188 25.003906 C 0.488281 25.46875 0.84375 25.660156 1.429688 25.660156 C 1.910156 25.660156 2.238281 25.53125 2.488281 25.226562 L 2.664062 25.011719 L 2.632812 26.09375 C 2.605469 27.320312 2.511719 27.539062 1.988281 27.671875 C 1.378906 27.816406 0.921875 27.511719 0.835938 26.886719 L 0.777344 26.496094 L 0 26.496094 L 0.046875 26.816406 C 0.128906 27.394531 0.167969 27.519531 0.367188 27.816406 C 0.640625 28.210938 1.097656 28.394531 1.773438 28.402344 C 2.550781 28.402344 2.9375 28.195312 3.25 27.601562 L 3.488281 27.144531 L 3.488281 22.347656 L 3.289062 21.96875 C 3.007812 21.433594 2.589844 21.175781 1.925781 21.128906 C 1.582031 21.097656 1.300781 21.121094 1.089844 21.199219 Z M 2.367188 22.035156 C 2.613281 22.273438 2.664062 22.570312 2.632812 23.640625 L 2.605469 24.53125 L 2.34375 24.753906 C 2.046875 25.003906 1.660156 25.042969 1.292969 24.867188 C 0.953125 24.699219 0.882812 24.457031 0.882812 23.40625 C 0.882812 22.097656 1.019531 21.859375 1.789062 21.851562 C 2.085938 21.851562 2.214844 21.890625 2.367188 22.035156 Z M 2.367188 22.035156 "/>
<path style=" stroke:none;fill-rule:nonzero;fill:rgb(0%,0%,0%);fill-opacity:1;" d="M 5.453125 21.160156 C 4.988281 21.304688 4.722656 21.496094 4.515625 21.835938 L 4.292969 22.195312 L 4.265625 24.570312 C 4.25 26.078125 4.277344 27.046875 4.324219 27.242188 C 4.539062 28.003906 5.09375 28.402344 5.960938 28.402344 C 6.800781 28.402344 7.347656 28.066406 7.582031 27.402344 C 7.691406 27.097656 7.707031 26.664062 7.683594 24.617188 L 7.660156 22.195312 L 7.460938 21.851562 C 7.203125 21.417969 6.730469 21.160156 6.113281 21.121094 C 5.863281 21.105469 5.566406 21.121094 5.453125 21.160156 Z M 6.53125 21.996094 C 6.867188 22.273438 6.898438 22.507812 6.898438 24.722656 C 6.898438 25.972656 6.867188 26.960938 6.808594 27.128906 C 6.585938 27.898438 5.367188 27.898438 5.140625 27.128906 C 5.085938 26.960938 5.054688 25.972656 5.054688 24.722656 C 5.054688 22.507812 5.085938 22.273438 5.421875 21.996094 C 5.710938 21.753906 6.242188 21.753906 6.53125 21.996094 Z M 6.53125 21.996094 "/>
</g>
</svg>
